<mxfile host="65bd71144e">
    <diagram id="OAJJaGqK4o9o8oSJGirk" name="Page-1">
        <mxGraphModel dx="1370" dy="787" grid="1" gridSize="10" guides="1" tooltips="1" connect="1" arrows="1" fold="1" page="1" pageScale="1" pageWidth="850" pageHeight="1100" math="0" shadow="0">
            <root>
                <mxCell id="0"/>
                <mxCell id="1" parent="0"/>
                <mxCell id="2" value="" style="edgeStyle=none;html=1;" edge="1" parent="1" source="3" target="5">
                    <mxGeometry relative="1" as="geometry"/>
                </mxCell>
                <mxCell id="3" value="MVP 1" style="rounded=1;whiteSpace=wrap;html=1;" vertex="1" parent="1">
                    <mxGeometry x="10" y="10" width="120" height="60" as="geometry"/>
                </mxCell>
                <mxCell id="4" value="" style="edgeStyle=none;html=1;" edge="1" parent="1" source="5" target="7">
                    <mxGeometry relative="1" as="geometry"/>
                </mxCell>
                <mxCell id="5" value="Create flow chart, js file and html file" style="whiteSpace=wrap;html=1;rounded=1;" vertex="1" parent="1">
                    <mxGeometry x="150" y="10" width="120" height="60" as="geometry"/>
                </mxCell>
                <mxCell id="6" value="" style="edgeStyle=none;html=1;" edge="1" parent="1" source="7">
                    <mxGeometry relative="1" as="geometry">
                        <mxPoint x="430" y="40" as="targetPoint"/>
                    </mxGeometry>
                </mxCell>
                <mxCell id="7" value="Add html elements:&lt;br&gt;button and textbox" style="whiteSpace=wrap;html=1;rounded=1;" vertex="1" parent="1">
                    <mxGeometry x="290" y="10" width="120" height="60" as="geometry"/>
                </mxCell>
                <mxCell id="12" value="" style="edgeStyle=none;html=1;" edge="1" parent="1">
                    <mxGeometry relative="1" as="geometry">
                        <mxPoint x="570" y="40" as="targetPoint"/>
                        <mxPoint x="550" y="40" as="sourcePoint"/>
                    </mxGeometry>
                </mxCell>
                <mxCell id="22" value="" style="edgeStyle=none;html=1;" edge="1" parent="1">
                    <mxGeometry relative="1" as="geometry">
                        <mxPoint x="1080" y="330" as="targetPoint"/>
                        <mxPoint x="1060" y="330" as="sourcePoint"/>
                    </mxGeometry>
                </mxCell>
                <mxCell id="65" value="De-bug!" style="ellipse;whiteSpace=wrap;html=1;" vertex="1" parent="1">
                    <mxGeometry x="1110" y="80" width="80" height="80" as="geometry"/>
                </mxCell>
                <mxCell id="69" value="" style="edgeStyle=none;html=1;entryX=0.5;entryY=0;entryDx=0;entryDy=0;" edge="1" parent="1">
                    <mxGeometry relative="1" as="geometry">
                        <mxPoint x="1270" y="400" as="sourcePoint"/>
                        <mxPoint x="590" y="460" as="targetPoint"/>
                        <Array as="points">
                            <mxPoint x="1270" y="430"/>
                            <mxPoint x="590" y="430"/>
                        </Array>
                    </mxGeometry>
                </mxCell>
                <mxCell id="70" value="Desired outcome?" style="rhombus;whiteSpace=wrap;html=1;" vertex="1" parent="1">
                    <mxGeometry x="1080" y="290" width="80" height="80" as="geometry"/>
                </mxCell>
                <mxCell id="71" value="Yes" style="text;html=1;strokeColor=none;fillColor=none;align=center;verticalAlign=middle;whiteSpace=wrap;rounded=0;" vertex="1" parent="1">
                    <mxGeometry x="1070" y="370" width="60" height="30" as="geometry"/>
                </mxCell>
                <mxCell id="82" value="No" style="text;html=1;strokeColor=none;fillColor=none;align=center;verticalAlign=middle;whiteSpace=wrap;rounded=0;" vertex="1" parent="1">
                    <mxGeometry x="1140" y="310" width="60" height="30" as="geometry"/>
                </mxCell>
                <mxCell id="98" value="Complete!" style="whiteSpace=wrap;html=1;aspect=fixed;" vertex="1" parent="1">
                    <mxGeometry x="1090" y="190" width="80" height="80" as="geometry"/>
                </mxCell>
                <mxCell id="102" value="Fetch data from random useless facts API" style="whiteSpace=wrap;html=1;rounded=1;" vertex="1" parent="1">
                    <mxGeometry x="430" y="10" width="120" height="60" as="geometry"/>
                </mxCell>
                <mxCell id="103" value="Link to button and text box" style="whiteSpace=wrap;html=1;rounded=1;" vertex="1" parent="1">
                    <mxGeometry x="570" y="10" width="120" height="60" as="geometry"/>
                </mxCell>
                <mxCell id="104" value="" style="edgeStyle=none;html=1;" edge="1" parent="1">
                    <mxGeometry relative="1" as="geometry">
                        <mxPoint x="710" y="40" as="targetPoint"/>
                        <mxPoint x="690" y="40" as="sourcePoint"/>
                    </mxGeometry>
                </mxCell>
                <mxCell id="105" value="Display on live server" style="whiteSpace=wrap;html=1;rounded=1;" vertex="1" parent="1">
                    <mxGeometry x="710" y="10" width="120" height="60" as="geometry"/>
                </mxCell>
            </root>
        </mxGraphModel>
    </diagram>
</mxfile>